<svg xmlns="http://www.w3.org/2000/svg" viewBox="0 0 512 512" width="250" height="250">
	<style>
		tspan { white-space:pre }
		.shp0 { fill: #e2e9ee } 
		.shp1 { fill: #ffcd69 } 
		.shp2 { fill: #ffffff } 
		.shp3 { fill: #000000 } 
	</style>
	<g id="XMLID_1423_">
		<path id="XMLID_1546_" class="shp0" d="M61.8 94.08L61.8 430.71C61.8 441.97 58.38 452.96 51.99 462.23C40.39 479.06 52.43 502 72.87 502L194.57 502L195.51 502L317.21 502C337.65 502 349.69 479.06 338.09 462.23C331.7 452.96 328.28 441.97 328.28 430.71L328.28 104L61.8 94.08Z" />
		<path id="XMLID_1545_" class="shp1" d="M61.8 196.33L328.28 196.33L328.28 371L328.28 408C328.28 430.09 310.37 448 288.28 448L101.8 448C79.71 448 61.8 430.09 61.8 408L61.8 371L61.8 196.33Z" />
		<path id="XMLID_1544_" class="shp2" d="M328.96 89.32C326.76 68.98 310.64 53.39 290.24 51.79C277.73 50.81 266.25 55.28 257.91 63.06C253.05 32.98 226.97 10 195.51 10C164.05 10 137.97 32.98 133.12 63.07C124.78 55.28 113.3 50.81 100.78 51.79C80.38 53.38 64.26 68.97 62.05 89.32C59.29 114.85 79.22 136.44 104.19 136.44L166.03 136.44C181.96 136.44 194.87 149.35 194.87 165.28L194.87 224.39C194.87 241.26 208.1 255.53 224.96 255.99C242.46 256.47 256.8 242.43 256.8 225.04L256.8 165.51C256.8 149.22 270.18 136.3 286.48 136.44C286.6 136.44 286.71 136.44 286.83 136.44C311.8 136.44 331.73 114.85 328.96 89.32L328.96 89.32Z" />
		<g id="XMLID_1541_">
			<path id="XMLID_1542_" class="shp0" d="M361.01 116.67L329.22 116.67L329.22 164.67L361.01 164.67C391.61 164.67 416.51 189.56 416.51 220.17L416.51 322.17C416.51 352.77 391.61 377.67 361.01 377.67L329.22 377.67L329.22 425.67L361.01 425.67C418.08 425.67 464.51 379.24 464.51 322.17L464.51 220.17C464.51 163.1 418.08 116.67 361.01 116.67L361.01 116.67Z" />
		</g>
		<g id="XMLID_306_">
			<path id="XMLID_312_" fill-rule="evenodd" class="shp3" d="M474.51 220.17L474.51 322.17C474.51 384.75 423.59 435.67 361.01 435.67L338.55 435.67C339.36 443.15 342.01 450.29 346.32 456.56C353.81 467.41 354.65 481.4 348.52 493.08C342.39 504.75 330.39 512 317.21 512L195.51 512C195.35 512 195.2 511.98 195.04 511.98C194.88 511.98 194.73 512 194.57 512L72.87 512C59.69 512 47.69 504.75 41.56 493.08C35.43 481.4 36.27 467.41 43.76 456.56C49.02 448.92 51.8 439.99 51.8 430.71L51.8 94.08L51.81 94.09C51.81 92.15 51.9 90.19 52.11 88.24C54.81 63.3 74.95 43.78 100 41.82C109.43 41.08 118.81 42.92 127.16 46.98C131.48 35.74 138.56 25.63 147.82 17.67C161.08 6.28 178.01 0 195.51 0C213.01 0 229.95 6.27 243.2 17.67C252.47 25.63 259.55 35.74 263.87 46.98C272.21 42.92 281.6 41.08 291.02 41.82C316.07 43.78 336.21 63.3 338.91 88.24C339.58 94.48 339.12 100.71 337.64 106.67L361.01 106.67C423.59 106.67 474.51 157.58 474.51 220.17ZM72 90.39C70.98 99.76 73.85 108.74 80.07 115.67C86.21 122.51 95 126.44 104.19 126.44L166.02 126.44C187.44 126.44 204.87 143.86 204.87 165.28L204.87 224.39C204.87 236 214.01 245.69 225.24 245.99C230.96 246.15 236.36 244.04 240.45 240.06C244.54 236.08 246.8 230.74 246.8 225.04L246.8 165.51C246.8 155.06 250.88 145.25 258.31 137.89C265.84 130.42 275.88 126.35 286.56 126.44L286.83 126.44C296.01 126.44 304.8 122.51 310.94 115.67C317.17 108.74 320.04 99.76 319.02 90.39C317.33 74.76 305.17 62.99 289.46 61.76C280.24 61.04 271.46 64.09 264.74 70.37C262.04 72.89 258.17 73.72 254.67 72.53C251.18 71.33 248.63 68.3 248.04 64.66C243.86 38.78 221.77 20 195.51 20C169.26 20 147.17 38.78 142.99 64.67C142.4 68.31 139.85 71.34 136.35 72.53C132.86 73.73 128.99 72.9 126.29 70.38C120.21 64.7 112.45 61.65 104.21 61.65C103.33 61.65 102.45 61.69 101.56 61.76C85.85 62.99 73.69 74.76 72 90.39ZM454.51 220.17C454.51 168.61 412.57 126.67 361.01 126.67L338.28 126.67L338.28 154.67L361.01 154.67C397.13 154.67 426.51 184.05 426.51 220.17L426.51 322.17C426.51 358.28 397.13 387.67 361.01 387.67L338.28 387.67L338.28 415.67L361.01 415.67C412.57 415.67 454.51 373.72 454.51 322.17L454.51 220.17ZM318.28 186.33L318.28 135.92C309.27 142.68 298.25 146.44 286.83 146.44L286.39 146.44C281.09 146.38 276.11 148.4 272.39 152.09C268.78 155.67 266.8 160.43 266.8 165.51L266.8 186.33L318.28 186.33ZM184.87 165.28C184.87 154.89 176.42 146.44 166.03 146.44L104.19 146.44C92.37 146.44 80.97 142.41 71.8 135.2L71.8 186.33L184.87 186.33L184.87 165.28ZM329.86 467.91C325.32 461.33 322.08 454.08 320.2 446.45C311.53 453.66 300.4 458 288.28 458L240.04 458C234.52 458 230.04 453.52 230.04 448C230.04 442.48 234.52 438 240.04 438L288.28 438C304.82 438 318.28 424.54 318.28 408L318.28 206.33L266.8 206.33L266.8 225.04C266.8 236.19 262.39 246.62 254.4 254.4C246.68 261.91 236.58 266 225.85 266C225.46 266 225.08 266 224.69 265.98C202.73 265.38 184.87 246.72 184.87 224.39L184.87 206.33L71.8 206.33L71.8 408C71.8 424.54 85.26 438 101.8 438L150.04 438C155.56 438 160.04 442.48 160.04 448C160.04 453.52 155.56 458 150.04 458L101.8 458C89.68 458 78.55 453.66 69.89 446.45C68 454.08 64.76 461.33 60.22 467.91C56.92 472.7 56.56 478.63 59.27 483.78C61.97 488.93 67.06 492 72.87 492L194.57 492C194.73 492 194.88 492.02 195.04 492.02C195.2 492.02 195.35 492 195.51 492L317.21 492C323.02 492 328.11 488.93 330.81 483.78C333.52 478.63 333.16 472.7 329.86 467.91ZM338.28 367.67L361.01 367.67C386.1 367.67 406.51 347.26 406.51 322.17L406.51 220.17C406.51 195.08 386.1 174.67 361.01 174.67L338.28 174.67L338.28 367.67Z" />
			<path id="XMLID_493_" class="shp3" d="M195.04 438C192.41 438 189.84 439.07 187.97 440.93C186.11 442.79 185.04 445.37 185.04 448C185.04 450.63 186.11 453.21 187.97 455.07C189.84 456.93 192.41 458 195.04 458C197.68 458 200.25 456.93 202.11 455.07C203.98 453.21 205.04 450.63 205.04 448C205.04 445.37 203.98 442.79 202.11 440.93C200.25 439.07 197.68 438 195.04 438Z" />
		</g>
	</g>
</svg>