<svg width="174" height="101" viewBox="0 0 174 101" fill="none" xmlns="http://www.w3.org/2000/svg">
<rect width="174" height="101" fill="white"/>
<g clip-path="url(#clip0)">
<path d="M93 50C93 67.607 82.8871 82.8519 68.1544 90.2464H68.1524C64.7583 91.9472 61.1232 93.2346 57.3068 94.0359C57.004 94.0998 56.6991 94.1609 56.3922 94.2193C55.503 94.3868 54.6048 94.5283 53.6978 94.6416C53.0015 94.7301 52.2998 94.8036 51.5925 94.8586C50.4081 94.9519 49.2085 95 48 95C47.7466 95 47.4933 94.9979 47.2399 94.9924C46.1873 94.976 45.1436 94.9231 44.1115 94.8345C44.1095 94.8345 44.1095 94.8345 44.1095 94.8345C39.7548 94.4617 35.5779 93.4681 31.6661 91.9437C28.3283 90.6432 25.1821 88.9534 22.2879 86.9333C10.6279 78.802 3 65.293 3 50C3 25.1469 23.1469 5 48 5C72.8531 5 93 25.1469 93 50V50Z" fill="#633B5A"/>
<path d="M75.3381 54.3032C74.9412 63.5935 73.6648 72.2816 71.5451 80.1279C70.5865 83.671 69.4549 87.0486 68.1544 90.2464H68.1524C64.7583 91.9472 61.1232 93.2346 57.3068 94.0359C57.004 94.0998 56.6991 94.1609 56.3922 94.2193C55.503 94.3868 54.6048 94.5283 53.6978 94.6416C54.5224 93.2793 55.2846 91.8792 55.9898 90.4544C69.0951 64.0289 63.076 28.3961 63.0046 27.9978L66.9514 27.305L73.8591 26.0951C73.9477 26.5964 76.0103 38.5845 75.3381 54.3032V54.3032Z" fill="#CCC3C3"/>
<path d="M75.3381 54.3032C74.9412 63.5935 73.6648 72.2816 71.5451 80.1279C70.5865 83.671 69.4549 87.0486 68.1544 90.2464C64.7603 91.9472 61.1232 93.2346 57.3068 94.0359C72.8806 68.7344 67.5962 31.429 66.9514 27.305L73.8591 26.0951C73.9477 26.5964 76.0103 38.5845 75.3381 54.3032V54.3032Z" fill="#E6DCDC"/>
<path d="M56.3922 94.2193C55.503 94.3868 54.6048 94.5283 53.6978 94.6416C53.0015 94.7301 52.2998 94.8036 51.5925 94.8585C50.4081 94.9519 49.2085 95 48 95C47.7466 95 47.4933 94.9979 47.2399 94.9924L44.7199 71.4055L53.8516 70.4297L53.9402 71.2585L55.9898 90.4544L56.3922 94.2193Z" fill="#CCC3C3"/>
<path d="M56.3922 94.2193C54.8198 94.5152 53.2185 94.7301 51.5925 94.8586L49.1275 71.7728L53.9402 71.2585L56.3922 94.2193Z" fill="#E6DCDC"/>
<path d="M44.1095 94.8345C39.7548 94.4617 35.5779 93.4681 31.6661 91.9437C28.3283 90.6432 25.1821 88.9534 22.2879 86.9333C18.0375 81.195 15.3267 74.9891 14.2205 68.4612C11.9964 55.3359 16.4006 43.0422 21.0018 32.7473L23.9592 34.0685L29.3844 36.4944C25.3455 45.5334 21.4612 56.2176 23.276 66.9272C25.0283 77.2736 31.8645 86.4499 44.1095 94.8345V94.8345Z" fill="#CCC3C3"/>
<path d="M44.1095 94.8345C39.7548 94.4617 35.5779 93.4681 31.6661 91.9437C30.0696 90.3404 28.6153 88.709 27.3052 87.0507C22.4932 80.9615 19.45 74.3182 18.2614 67.3021C16.2138 55.2144 19.7857 43.8326 23.9592 34.0685L29.3844 36.4944C25.3455 45.5334 21.4612 56.2176 23.276 66.9272C25.0283 77.2736 31.8645 86.4499 44.1095 94.8345V94.8345Z" fill="#E6DCDC"/>
<path d="M88.4084 23.1611C88.4084 26.4892 86.9967 29.0511 84.5845 30.9538H84.5824C80.5861 34.1041 73.8371 35.4397 66.1837 35.4397C53.9079 35.4397 43.9591 32.003 43.9591 23.1611C43.9591 16.3193 49.9164 10.4801 58.3011 8.19151C60.7503 7.52135 63.409 7.15399 66.1837 7.15399C78.4589 7.15399 88.4084 14.3212 88.4084 23.1611V23.1611Z" fill="#CCC3C3"/>
<path d="M88.4084 23.1611C88.4084 26.4892 86.9967 29.0511 84.5845 30.9538H84.5824C81.3243 31.762 77.5464 32.1335 73.5199 32.1335C61.2447 32.1335 51.2952 28.6968 51.2952 19.8549C51.2952 15.2557 53.9882 11.1098 58.3011 8.19151C60.7503 7.52135 63.409 7.15399 66.1837 7.15399C78.4589 7.15399 88.4084 14.3212 88.4084 23.1611V23.1611Z" fill="#E6DCDC"/>
<path d="M67.1443 62.6487C67.5351 65.5216 66.6184 67.8988 64.7603 69.8242L64.7583 69.8248C61.68 73.0129 56.0118 74.9589 49.4062 75.8584C38.812 77.3017 29.8211 75.5048 28.7815 67.8734C27.9774 61.9689 32.4331 56.2293 39.4004 53.2684C41.4357 52.4019 43.6865 51.7722 46.0808 51.4461C56.6758 50.0034 66.1048 55.0194 67.1443 62.6487V62.6487Z" fill="#CCC3C3"/>
<path d="M67.1444 62.6487C67.5351 65.5216 66.6184 67.8988 64.7603 69.8242L64.7583 69.8248C62.0412 70.9049 58.8243 71.6692 55.3492 72.143C44.7549 73.5856 35.764 71.7893 34.7244 64.158C34.184 60.1885 36.0208 56.2938 39.4005 53.2684C41.4357 52.4019 43.6865 51.7722 46.0808 51.4461C56.6758 50.0034 66.1048 55.0194 67.1444 62.6487V62.6487Z" fill="#E6DCDC"/>
<path d="M42.4869 38.8235C41.8916 42.0981 40.2512 44.4038 37.8898 45.9083H37.8885C33.978 48.3981 28.0859 48.6837 21.6768 47.5178C11.3963 45.6474 3.67841 40.7509 5.26113 32.0518C6.48541 25.3199 12.5203 20.4832 19.9519 19.5088C22.1231 19.2225 24.4151 19.2664 26.7387 19.6887C37.0199 21.5591 44.0696 30.1264 42.4869 38.8235Z" fill="#CCC3C3"/>
<path d="M42.4869 38.8235C41.8916 42.0981 40.2512 44.4038 37.8898 45.9083H37.8885C35.0148 46.207 31.7842 45.9962 28.4121 45.383C18.1316 43.5126 10.4144 38.6154 11.9971 29.9163C12.8204 25.3913 15.8176 21.7233 19.9519 19.5088C22.1231 19.2225 24.4151 19.2664 26.7394 19.6887C37.0199 21.5591 44.0696 30.1264 42.4869 38.8235Z" fill="#E6DCDC"/>
</g>
<path d="M104.625 54.1133H97.2305V60.1602H105.82V62H94.9805V44.9375H105.703V46.7891H97.2305V52.2734H104.625V54.1133ZM110.332 49.3203L110.402 50.9141C111.371 49.6953 112.637 49.0859 114.199 49.0859C116.879 49.0859 118.23 50.5977 118.254 53.6211V62H116.086V53.6094C116.078 52.6953 115.867 52.0195 115.453 51.582C115.047 51.1445 114.41 50.9258 113.543 50.9258C112.84 50.9258 112.223 51.1133 111.691 51.4883C111.16 51.8633 110.746 52.3555 110.449 52.9648V62H108.281V49.3203H110.332ZM120.949 55.543C120.949 54.3008 121.191 53.1836 121.676 52.1914C122.168 51.1992 122.848 50.4336 123.715 49.8945C124.59 49.3555 125.586 49.0859 126.703 49.0859C128.43 49.0859 129.824 49.6836 130.887 50.8789C131.957 52.0742 132.492 53.6641 132.492 55.6484V55.8008C132.492 57.0352 132.254 58.1445 131.777 59.1289C131.309 60.1055 130.633 60.8672 129.75 61.4141C128.875 61.9609 127.867 62.2344 126.727 62.2344C125.008 62.2344 123.613 61.6367 122.543 60.4414C121.48 59.2461 120.949 57.6641 120.949 55.6953V55.543ZM123.129 55.8008C123.129 57.207 123.453 58.3359 124.102 59.1875C124.758 60.0391 125.633 60.4648 126.727 60.4648C127.828 60.4648 128.703 60.0352 129.352 59.1758C130 58.3086 130.324 57.0977 130.324 55.543C130.324 54.1523 129.992 53.0273 129.328 52.168C128.672 51.3008 127.797 50.8672 126.703 50.8672C125.633 50.8672 124.77 51.293 124.113 52.1445C123.457 52.9961 123.129 54.2148 123.129 55.8008ZM138.75 56.1289L137.391 57.5469V62H135.223V44H137.391V54.8867L138.551 53.4922L142.5 49.3203H145.137L140.203 54.6172L145.711 62H143.168L138.75 56.1289ZM149.73 62H147.562V49.3203H149.73V62ZM147.387 45.957C147.387 45.6055 147.492 45.3086 147.703 45.0664C147.922 44.8242 148.242 44.7031 148.664 44.7031C149.086 44.7031 149.406 44.8242 149.625 45.0664C149.844 45.3086 149.953 45.6055 149.953 45.957C149.953 46.3086 149.844 46.6016 149.625 46.8359C149.406 47.0703 149.086 47.1875 148.664 47.1875C148.242 47.1875 147.922 47.0703 147.703 46.8359C147.492 46.6016 147.387 46.3086 147.387 45.957Z" fill="black"/>
<defs>
<clipPath id="clip0">
<rect width="90" height="90" fill="white" transform="translate(3 5)"/>
</clipPath>
</defs>
</svg>
