<svg xmlns="http://www.w3.org/2000/svg" viewBox="0 0 512 512" width="100" height="100">
	<style>
		tspan { white-space:pre }
		.shp0 { fill: #ffa127 } 
		.shp1 { fill: #ef4e2e } 
		.shp2 { opacity: 0.302;fill: #635b50 } 
		.shp3 { opacity: 0.302;fill: #f4f4f4 } 
		.shp4 { opacity: 0.2;fill: #635b50 } 
	</style>
	<path id="Layer" class="shp0" d="M363.67 209.7L365.27 463.31C365.45 488.33 345.64 506.85 322.35 505.12L273.61 501.52C268.1 501.11 262.74 499.57 257.86 496.98C252.98 494.4 248.68 490.84 245.25 486.51C241.81 482.19 239.31 477.2 237.89 471.86C236.48 466.52 236.19 460.95 237.04 455.49L276.13 203.3" />
	<path id="Layer" class="shp1" d="M228.81 291.43C239.27 344.5 27.35 386.29 16.89 333.21C6.42 280.14 45.38 227.76 103.9 216.22C162.42 204.68 218.34 238.35 228.81 291.43Z" />
	<path id="Layer" class="shp1" d="M165.38 343.2L200.63 457.23C201.95 461.52 202.36 466.03 201.83 470.48C201.29 474.94 199.83 479.23 197.53 483.08C195.23 486.93 192.15 490.25 188.48 492.84C184.81 495.42 180.65 497.2 176.25 498.07L151.81 502.89C147.41 503.76 142.87 503.69 138.5 502.69C134.13 501.69 130.01 499.79 126.42 497.1C122.84 494.41 119.85 491 117.67 487.08C115.48 483.16 114.15 478.83 113.75 474.36L103.23 356.3" />
	<path id="Layer" class="shp2" d="M295.97 278.99L305.71 190.96L321.61 192.72L311.87 280.75L295.97 278.99Z" />
	<path id="Layer" class="shp0" d="M503.69 162.54C497.88 241.03 138.86 214.47 144.67 135.98C150.47 57.5 235.55 -0.18 334.69 7.15C433.83 14.49 509.49 84.06 503.69 162.54Z" />
	<g id="Layer">
		<path id="Layer" class="shp2" d="M265.73 500.13C266.37 500.31 267.02 500.48 267.67 500.63C268.32 500.77 268.98 500.91 269.64 501.02C270.29 501.14 270.95 501.24 271.62 501.32C272.28 501.4 272.95 501.47 273.61 501.52L281.61 502.11L295.92 401.12L280.08 398.88L265.73 500.13Z" />
		<path id="Layer" class="shp2" d="M143.94 439.01L128.06 440.99L135.68 501.91C136.97 502.34 138.29 502.68 139.63 502.94C140.97 503.19 142.32 503.36 143.68 503.44C145.04 503.53 146.4 503.52 147.76 503.43C149.12 503.34 150.47 503.16 151.8 502.89L151.92 502.87L143.94 439.01Z" />
		<path id="Layer" class="shp2" d="M363.76 225.22L363.66 209.7L276.12 203.3L237.04 455.49C236.41 459.55 236.4 463.68 237.03 467.73C237.66 471.79 238.9 475.73 240.73 479.41C242.55 483.08 244.93 486.46 247.78 489.41C250.63 492.37 253.92 494.87 257.52 496.82L279.24 280.74C282.1 252.29 303.92 229.14 332.26 225.29C334.87 224.97 337.49 224.72 340.12 224.56C342.74 224.39 345.38 224.31 348.01 224.3C350.64 224.3 353.27 224.37 355.9 224.52C358.53 224.68 361.15 224.91 363.76 225.22L363.76 225.22Z" />
	</g>
	<path id="Layer" class="shp3" d="M334.69 7.15C235.55 -0.18 150.47 57.5 144.67 135.98C143.36 153.65 160.55 168.68 188.02 180.48C222.13 41.18 384.15 17.27 386.02 16.99C381.86 15.68 377.66 14.48 373.43 13.41C369.19 12.34 364.93 11.39 360.64 10.57C356.36 9.75 352.05 9.05 347.72 8.48C343.39 7.91 339.05 7.47 334.69 7.15L334.69 7.15Z" />
	<path id="Layer" class="shp4" d="M410 141C357.05 185.27 315.44 178.96 303.5 206.7C398.17 216.25 500.61 204.17 503.69 162.54C508.08 103.16 465.83 48.9 402.08 22.81C402.08 22.81 471 90 410 141Z" />
	<path id="Layer" class="shp3" d="M116.89 214.39C115.8 214.48 114.71 214.59 113.62 214.71C112.53 214.84 111.45 214.97 110.37 215.13C109.28 215.28 108.2 215.45 107.13 215.63C106.05 215.81 104.97 216.01 103.9 216.22C45.38 227.76 6.42 280.14 16.89 333.21C20.41 351.07 46.73 358.19 79.71 357.75C20.73 295.25 84.1 237.79 116.89 214.39Z" />
	<path id="Layer" class="shp2" d="M169.21 355.62L165.38 343.2L103.23 356.3L113.75 474.36C114.02 477.4 114.72 480.39 115.84 483.23C116.96 486.07 118.48 488.73 120.35 491.14C122.23 493.55 124.44 495.68 126.91 497.47C129.39 499.25 132.11 500.67 134.99 501.68C140.69 476.55 122.03 415.39 122.19 388C122.31 365.82 150.65 358.22 169.21 355.62L169.21 355.62Z" />
	<path id="Layer" class="shp4" d="M147.51 215.8C164.93 230.9 203.62 271.97 163 311C142.42 330.77 140.57 342.2 145.68 348.8C192.74 337.15 233.54 315.45 228.81 291.43C221.02 251.91 188.01 223.15 147.51 215.8L147.51 215.8Z" />
</svg>