<svg xmlns="http://www.w3.org/2000/svg" xmlns:xlink="http://www.w3.org/1999/xlink" xmlns:fi="http://pattern.flaticon.com/" x="0" y="0" width="1920" height="960" viewBox="0 0 1920 960"><rect x="0px" y="0px" width="100%" height="100%" opacity="1" fill="#f7b32b"/><defs><g transform="matrix(0.1171875 0 0 0.1171875 145 106)" id="L1_0"><g><path d="M147.424,466.207l-70.446-67.088c-6.521-6.521-17.087-6.521-23.609,0L4.892,447.598   c-5.631,5.625-6.5,14.446-2.087,21.065c15.446,23.168,39.054,38.136,66.479,42.146c4.728,0.69,9.479,1.033,14.196,1.033   c22.489,0,44.413-7.75,61.751-22.125C152.326,483.832,153.315,473.305,147.424,466.207z" fill="#ff9480"/><path d="M161.978,271.892c-6.859-1.027-13.653,2.261-17.065,8.299l-31.348,55.549   c-4.532,8.033-1.695,18.217,6.337,22.745l95.891,37.092c8.195,0,15.337-6.033,16.511-14.375   C240.283,324.392,211.359,279.446,161.978,271.892z" fill="#ff9480"/><path d="M116.87,242.359C52.424,242.359,0,189.931,0,125.49c0-9.223,7.479-16.696,16.696-16.696   c30.543,0,59.424,11.772,81.326,33.146c12.033-28.777,33.359-51.614,61.065-64.533c8.348-3.913,18.294-0.283,22.185,8.076   c13.185,28.271,14.413,60.054,3.446,89.479c-10.891,29.25-32.479,52.63-60.793,65.832   C121.717,241.826,119.305,242.359,116.87,242.359z" fill="#ff9480"/></g><g><path d="M509.195,43.332c-15.446-23.168-39.055-38.136-66.479-42.147   c-27.25-3.978-54.968,3.701-75.945,21.092c-7.098,5.886-8.087,16.413-2.196,23.511l82.249,71.984c4.272,0,8.544-1.631,11.804-4.892   l48.479-48.484C512.739,58.772,513.608,49.951,509.195,43.332z" fill="#ff7459"/><path d="M298.554,116.582c-9.217-1.272-17.565,5.087-18.858,14.212   c-7.978,56.81,20.945,101.756,70.327,109.31c6.697,1.031,13.591-2.14,17.065-8.299l31.348-55.549L298.554,116.582z" fill="#ff7459"/><path d="M395.13,269.636c-2.435,0-4.847,0.533-7.054,1.565c-58.772,27.408-84.5,97.076-57.347,155.31   c3.891,8.365,13.825,11.977,22.185,8.076c27.707-12.918,49.033-35.755,61.065-64.533c21.902,21.375,50.783,33.146,81.326,33.146   c9.217,0,16.696-7.473,16.696-16.696C512,322.066,459.576,269.636,395.13,269.636z" fill="#ff7459"/></g><path d="M33.391,346.663c0-54.131,27.794-104.587,74.348-134.979c6.87-4.483,15.934-3.316,21.446,2.701  c5.522,6.033,5.859,15.174,0.805,21.597c-5.459,6.95-9.749,25.702-10.918,39.014c-4.283,49.668,25.005,64.551,68.222,76.796  c35.565,10.078,79.836,22.62,79.836,79.571c0,23.701-8.359,43.288-24.174,56.652C181.377,540.041,33.391,475.518,33.391,346.663z" fill="#e6563a"/><path d="M382.816,297.609c-5.522-6.033-5.859-15.174-0.805-21.598c5.459-6.95,8.855-26.76,10.024-40.072  c4.283-49.668-24.111-63.494-67.328-75.738c-35.566-10.076-79.838-22.619-79.838-79.57c0-23.701,8.359-43.288,24.174-56.652  c61.579-52.026,209.565,12.498,209.565,141.352c0,54.131-27.794,104.587-74.348,134.979  C397.365,304.813,388.287,303.582,382.816,297.609z" fill="#d9472b"/></g><g transform="matrix(0.1171875 0 0 0.1171875 283.0000094127654 164)" id="L1_1"><path d="M483.488,440.302L305.411,262.224c-6.521-6.515-6.521-17.091,0-23.607  c6.521-6.521,17.087-6.521,23.607,0l178.077,178.077c6.521,6.515,6.521,17.091,0,23.607  C500.573,446.824,490.009,446.824,483.488,440.302z" fill="#665247"/><path d="M350.603,267.116H150.266c-46.101,0-83.474-37.373-83.474-83.474V44.519h367.284v139.123  C434.077,229.743,396.705,267.116,350.603,267.116z" fill="#edf0f2"/><path d="M250.435,267.116h100.168c46.101,0,83.474-37.372,83.474-83.474V44.519H250.435V267.116z" fill="#dae1e6"/><path d="M37.428,13.922c-9.355,6.216-17.376,14.261-23.573,23.628C5.129,50.735,0.014,66.512,0.014,83.474  v33.389c0,27.618,22.467,50.084,50.084,50.084c25.295,0,46.05-18.912,49.4-43.301c0.307-2.239,0.684-4.461,0.684-6.784  c0-9.205,7.489-16.695,16.695-16.695h6.342L37.428,13.922z" fill="#e6563a"/><path d="M486.869,37.308c-6.229-9.343-14.292-17.346-23.665-23.531l-85.596,86.391h6.385  c9.205,0,16.695,7.489,16.695,16.695c0,2.308,0.377,4.514,0.682,6.741c3.33,24.409,24.093,43.343,49.402,43.343  c27.618,0,50.084-22.467,50.084-50.084V83.474C500.856,66.411,495.691,50.542,486.869,37.308z" fill="#d9472b"/><path d="M146.924,0H83.487C66.47,0,50.64,5.144,37.428,13.922c-9.355,6.216-17.376,14.261-23.573,23.628  l85.643,86.097c0.307-2.239,0.684-4.461,0.684-6.784c0-9.205,7.489-16.695,16.695-16.695h60.482L146.924,0z" fill="#ff7459"/><g><path d="M463.204,13.778C450.037,5.093,434.302,0,417.382,0h-63.437l-30.434,100.168h60.482   c9.205,0,16.695,7.489,16.695,16.695c0,2.308,0.377,4.514,0.682,6.741l85.499-86.296C480.64,27.965,472.579,19.961,463.204,13.778z   " fill="#e6563a"/><path d="M112.044,0 142.479,100.168 358.391,100.168 388.825,0z" fill="#e6563a"/></g><path d="M250.435,100.168 358.391,100.168 388.825,0 250.435,0z" fill="#d9472b"/><path d="M283.824,267.116h-66.779c-9.22,0-16.695-7.475-16.695-16.695V0h100.168v250.421  C300.519,259.641,293.046,267.116,283.824,267.116z" fill="#806a5f"/><g><rect x="250px" y="0px" width="50px" height="267px" fill="#736056"/><path d="M473.7,507.075c-6.568,6.567-17.029,6.567-23.596,0L138.469,195.44   c-6.567-6.455-6.567-17.14,0-23.595c6.568-6.567,17.029-6.567,23.596,0L473.7,483.48C480.267,489.935,480.267,500.62,473.7,507.075   z" fill="#736056"/></g><path d="M473.7,507.075c-6.568,6.567-17.029,6.567-23.596,0L250.435,307.406v-47.19L473.7,483.48  C480.267,489.935,480.267,500.62,473.7,507.075z" fill="#665247"/></g><g transform="matrix(0.1171875 0 0 0.1171875 -19 291)" id="L1_2"><path d="M283.826,506.435H150.261c-27.619,0-50.087-22.468-50.087-50.087v-33.391  c0-9.223,7.479-16.696,16.696-16.696h200.348c9.217,0,16.696,7.473,16.696,16.696v33.391  C333.913,483.967,311.445,506.435,283.826,506.435z" fill="#ff9f19"/><path d="M317.217,406.261H217.043v100.174h66.783c27.619,0,50.087-22.468,50.087-50.087v-33.391  C333.913,413.734,326.435,406.261,317.217,406.261z" fill="#f28618"/><g><path d="M495.304,72.348H283.826c-9.217,0-16.696-7.473-16.696-16.696s7.479-16.696,16.696-16.696h211.478   c9.217,0,16.696,7.473,16.696,16.696S504.521,72.348,495.304,72.348z" fill="#665247"/><path d="M495.304,139.13H283.826c-9.217,0-16.696-7.473-16.696-16.696s7.479-16.696,16.696-16.696h211.478   c9.217,0,16.696,7.473,16.696,16.696S504.521,139.13,495.304,139.13z" fill="#665247"/></g><g><path d="M83.478,72.348H16.696C7.479,72.348,0,64.875,0,55.652s7.479-16.696,16.696-16.696h66.783   c9.217,0,16.696,7.473,16.696,16.696S92.695,72.348,83.478,72.348z" fill="#736056"/><path d="M83.478,139.13H16.696C7.479,139.13,0,131.657,0,122.435s7.479-16.696,16.696-16.696h66.783   c9.217,0,16.696,7.473,16.696,16.696S92.695,139.13,83.478,139.13z" fill="#736056"/></g><path d="M144.696,239.304H66.783V44.522c0-21.515,17.441-38.957,38.957-38.957l0,0  c21.515,0,38.957,17.441,38.957,38.957V239.304z" fill="#f9a926"/><path d="M222.609,239.304h-77.913V44.522c0-21.515,17.441-38.957,38.957-38.957l0,0  c21.515,0,38.957,17.441,38.957,38.957V239.304z" fill="#ffc033"/><path d="M300.522,239.304h-77.913V44.522c0-21.515,17.441-38.957,38.957-38.957l0,0  c21.515,0,38.957,17.441,38.957,38.957V239.304z" fill="#f9a926"/><path d="M283.826,439.652H150.261C67.403,439.652,0,372.244,0,289.391v-66.783  c0-9.223,7.479-16.696,16.696-16.696h400.696c9.217,0,16.696,7.473,16.696,16.696v66.783  C434.087,372.244,366.684,439.652,283.826,439.652z" fill="#736056"/><path d="M417.391,205.913H217.043v233.739h66.783c82.858,0,150.261-67.408,150.261-150.261v-66.783  C434.087,213.386,426.608,205.913,417.391,205.913z" fill="#665247"/><path d="M150.261,372.87c-46.032,0-83.478-37.446-83.478-83.478c0-9.223,7.479-16.696,16.696-16.696  s16.696,7.473,16.696,16.696c0,27.619,22.468,50.087,50.087,50.087c9.217,0,16.696,7.473,16.696,16.696  S159.478,372.87,150.261,372.87z" fill="#997f72"/></g><g transform="matrix(0.1171875 0 0 0.1171875 201.00000823974642 227)" id="L1_3"><path d="M328.348,378.435H50.088c-27.619,0-50.087-22.468-50.087-50.087V50.087  C0.001,22.468,22.469,0,50.088,0h278.261c27.619,0,50.087,22.468,50.087,50.087v278.261  C378.435,355.967,355.969,378.435,328.348,378.435z" fill="#736056"/><path d="M328.348,0h-139.13v378.435h139.13c27.619,0,50.087-22.468,50.087-50.087V50.087  C378.435,22.468,355.969,0,328.348,0z" fill="#665247"/><path d="M111.305,211.478V33.391H50.088c-9.206,0-16.696,7.49-16.696,16.696v161.391H111.305z" fill="#e6563a"/><path d="M144.696,111.304h50.087c27.619,0,50.087,22.468,50.087,50.087v50.087h100.174V50.087  c0-9.206-7.49-16.696-16.696-16.696H144.696V111.304z" fill="#e4ebf0"/><path d="M211.479,161.391c0-9.206-7.49-16.696-16.696-16.696h-50.087v66.783h66.783V161.391z" fill="#88cc2a"/><path d="M178.088,244.87H33.392v83.478c0,9.206,7.49,16.696,16.696,16.696h128V244.87z" fill="#ffc033"/><path d="M211.479,161.391c0-9.206-7.49-16.696-16.696-16.696h-5.565v66.783h22.261V161.391z" fill="#7fb335"/><path d="M428.522,512c-9.217,0-16.696-7.473-16.696-16.696V16.696C411.827,7.473,419.305,0,428.522,0  s16.696,7.473,16.696,16.696v478.609C445.218,504.527,437.74,512,428.522,512z" fill="#736056"/><path d="M495.284,512c-8.685,0-16.022-6.728-16.63-15.533L445.263,17.859  c-0.641-9.202,6.293-17.174,15.489-17.821c9.055-0.614,17.184,6.293,17.815,15.495l33.391,478.609  c0.641,9.202-6.293,17.174-15.489,17.821C496.076,511.989,495.675,512,495.284,512z" fill="#665247"/><path d="M244.87,211.478v-50.087c0-27.619-22.468-50.087-50.087-50.087h-50.087V22.261h-33.391v189.217  H22.262v33.391h155.826v111.304h33.391V244.87h144.696v-33.391H244.87z M211.479,211.478h-66.783v-66.783h50.087  c9.206,0,16.696,7.49,16.696,16.696V211.478z" fill="#736056"/><path d="M244.87,161.391c0-27.619-22.468-50.087-50.087-50.087h-5.565v33.391h5.565  c9.206,0,16.696,7.49,16.696,16.696v50.087h-22.261v144.696h22.261V244.87h144.696v-33.391H244.87V161.391z" fill="#665247"/><path d="M194.783,111.304c27.619,0,50.087,22.468,50.087,50.087v50.087h100.174V50.087  c0-9.206-7.49-16.696-16.696-16.696h-139.13v77.913H194.783z" fill="#cdd9e4"/><path d="M211.479,244.87v100.174h116.87c9.206,0,16.696-7.49,16.696-16.696V244.87H211.479z" fill="#d9472b"/></g></defs><g fi:class="KUsePattern"><pattern id="pattern_L1_0" width="350" height="350" patternUnits="userSpaceOnUse"><use xlink:href="#L1_0" x="-350" y="-350"/><use xlink:href="#L1_0" x="0" y="-350"/><use xlink:href="#L1_0" x="350" y="-350"/><use xlink:href="#L1_0" x="-350" y="0"/><use xlink:href="#L1_0" x="0" y="0"/><use xlink:href="#L1_0" x="350" y="0"/><use xlink:href="#L1_0" x="-350" y="350"/><use xlink:href="#L1_0" x="0" y="350"/><use xlink:href="#L1_0" x="350" y="350"/></pattern><rect x="0" y="0" width="100%" height="100%" fill="url(#pattern_L1_0)"/></g><g fi:class="KUsePattern"><pattern id="pattern_L1_1" width="350" height="350" patternUnits="userSpaceOnUse"><use xlink:href="#L1_1" x="-350" y="-350"/><use xlink:href="#L1_1" x="0" y="-350"/><use xlink:href="#L1_1" x="350" y="-350"/><use xlink:href="#L1_1" x="-350" y="0"/><use xlink:href="#L1_1" x="0" y="0"/><use xlink:href="#L1_1" x="350" y="0"/><use xlink:href="#L1_1" x="-350" y="350"/><use xlink:href="#L1_1" x="0" y="350"/><use xlink:href="#L1_1" x="350" y="350"/></pattern><rect x="0" y="0" width="100%" height="100%" fill="url(#pattern_L1_1)"/></g><g fi:class="KUsePattern"><pattern id="pattern_L1_2" width="350" height="350" patternUnits="userSpaceOnUse"><use xlink:href="#L1_2" x="-350" y="-350"/><use xlink:href="#L1_2" x="0" y="-350"/><use xlink:href="#L1_2" x="350" y="-350"/><use xlink:href="#L1_2" x="-350" y="0"/><use xlink:href="#L1_2" x="0" y="0"/><use xlink:href="#L1_2" x="350" y="0"/><use xlink:href="#L1_2" x="-350" y="350"/><use xlink:href="#L1_2" x="0" y="350"/><use xlink:href="#L1_2" x="350" y="350"/></pattern><rect x="0" y="0" width="100%" height="100%" fill="url(#pattern_L1_2)"/></g><g fi:class="KUsePattern"><pattern id="pattern_L1_3" width="350" height="350" patternUnits="userSpaceOnUse"><use xlink:href="#L1_3" x="-350" y="-350"/><use xlink:href="#L1_3" x="0" y="-350"/><use xlink:href="#L1_3" x="350" y="-350"/><use xlink:href="#L1_3" x="-350" y="0"/><use xlink:href="#L1_3" x="0" y="0"/><use xlink:href="#L1_3" x="350" y="0"/><use xlink:href="#L1_3" x="-350" y="350"/><use xlink:href="#L1_3" x="0" y="350"/><use xlink:href="#L1_3" x="350" y="350"/></pattern><rect x="0" y="0" width="100%" height="100%" fill="url(#pattern_L1_3)"/></g></svg>