<svg xmlns="http://www.w3.org/2000/svg" viewBox="0 0 512 512" width="250" height="250">
	<style>
		tspan { white-space:pre }
		.shp0 { fill: #be5000 } 
		.shp1 { fill: #dc6e1e } 
		.shp2 { fill: #4b8c41 } 
		.shp3 { fill: #91b945 } 
		.shp4 { fill: #d7e6e6 } 
		.shp5 { fill: #ff8773 } 
		.shp6 { fill: #fabe19 } 
		.shp7 { fill: #d7322d } 
		.shp8 { fill: #f04b37 } 
		.shp9 { fill: #f5871e } 
		.shp10 { fill: #ff6955 } 
	</style>
	<g id="Layer">
		<g id="Layer">
			<path id="Layer" class="shp0" d="M80 168L64 168C46.33 168 32 182.33 32 200L32 248L112 248L112 200C112 182.33 97.67 168 80 168Z" />
		</g>
		<g id="Layer">
			<path id="Layer" class="shp1" d="M80 184L64 184C55.16 184 48 191.16 48 200L48 248L96 248L96 200C96 191.16 88.84 184 80 184Z" />
		</g>
		<g id="Layer">
			<path id="Layer" class="shp2" d="M136 200L168 200C172.42 200 176 203.58 176 208L176 248L128 248L128 208C128 203.58 131.58 200 136 200Z" />
		</g>
		<g id="Layer">
			<path id="Layer" class="shp3" d="M168 184L200 184C204.42 184 208 187.58 208 192L208 248L160 248L160 192C160 187.58 163.58 184 168 184Z" />
		</g>
		<g id="Layer">
			<path id="Layer" class="shp4" d="M432 296C405.46 296 384 274.54 384 248C384 221.46 405.46 200 432 200C458.54 200 480 221.46 480 248C480 274.54 458.54 296 432 296Z" />
		</g>
		<g id="Layer">
			<path id="Layer" class="shp4" d="M140 248C140 242.82 146.99 236.6 145.47 231.93C143.9 227.08 134.54 226.17 131.6 222.14C128.64 218.07 130.64 208.89 126.57 205.93C122.54 203 114.44 207.71 109.6 206.14C104.93 204.62 101.18 196 96 196C90.82 196 87.07 204.62 82.4 206.14C77.56 207.71 69.46 203 65.43 205.93C61.36 208.89 63.36 218.07 60.4 222.14C57.46 226.17 48.1 227.09 46.53 231.93C45.01 236.6 52 242.82 52 248C52 253.18 45.01 259.4 46.53 264.07C48.1 268.91 57.46 269.83 60.4 273.86C63.36 277.93 61.36 287.11 65.43 290.07C69.46 293 77.56 288.29 82.4 289.86C87.07 291.38 90.82 300 96 300C101.18 300 104.93 291.38 109.6 289.86C114.44 288.29 122.54 293 126.57 290.07C130.64 287.11 128.64 277.93 131.6 273.86C134.53 269.83 143.89 268.91 145.47 264.07C146.98 259.4 140 253.18 140 248L140 248Z" />
		</g>
		<g id="Layer">
			<path id="Layer" fill-rule="evenodd" class="shp5" d="M96 284C76.15 284 60 267.85 60 248C60 228.15 76.15 212 96 212C115.85 212 132 228.15 132 248C132 267.85 115.85 284 96 284ZM96 220C80.56 220 68 232.56 68 248C68 263.44 80.56 276 96 276C111.44 276 124 263.44 124 248C124 232.56 111.44 220 96 220Z" />
		</g>
		<g id="Layer">
			<path id="Layer" fill-rule="evenodd" class="shp5" d="M96 265.33C86.44 265.33 78.67 257.56 78.67 248C78.67 238.44 86.44 230.67 96 230.67C105.56 230.67 113.33 238.44 113.33 248C113.33 257.56 105.56 265.33 96 265.33ZM96 238.67C90.85 238.67 86.67 242.85 86.67 248C86.67 253.15 90.85 257.33 96 257.33C101.15 257.33 105.33 253.15 105.33 248C105.33 242.85 101.15 238.67 96 238.67Z" />
		</g>
		<g id="Layer">
			<path id="Layer" class="shp6" d="M432 272C418.73 272 408 261.27 408 248C408 234.73 418.73 224 432 224C445.27 224 456 234.73 456 248C456 261.27 445.27 272 432 272Z" />
		</g>
		<g id="Layer">
			<path id="Layer" class="shp4" d="M360 296C333.46 296 312 274.54 312 248C312 221.46 333.46 200 360 200C386.54 200 408 221.46 408 248C408 274.54 386.54 296 360 296Z" />
		</g>
		<g id="Layer">
			<path id="Layer" class="shp6" d="M360 272C346.73 272 336 261.27 336 248C336 234.73 346.73 224 360 224C373.27 224 384 234.73 384 248C384 261.27 373.27 272 360 272Z" />
		</g>
		<g id="Layer">
			<path id="Layer" class="shp7" d="M168 56L496 56L496 40L168 40C163.58 40 160 43.58 160 48C160 52.42 163.58 56 168 56Z" />
		</g>
		<g id="Layer">
			<path id="Layer" class="shp7" d="M168 88L496 88L496 72L168 72C163.58 72 160 75.58 160 80C160 84.42 163.58 88 168 88Z" />
		</g>
		<g id="Layer">
			<path id="Layer" class="shp8" d="M160 48L496 48L496 40L168 40C163.58 40 160 43.58 160 48Z" />
		</g>
		<g id="Layer">
			<path id="Layer" class="shp8" d="M160 80L496 80L496 72L168 72C163.58 72 160 75.58 160 80Z" />
		</g>
		<g id="Layer">
			<g id="Layer">
				<path id="Layer" class="shp9" d="M208 260C201.37 260 196 254.63 196 248C196 234.31 202.33 227.04 206.94 221.72C210.41 217.73 212 215.91 212 211.2C212 206.49 210.42 204.66 206.94 200.67C202.33 195.36 196 188.08 196 174.4C196 160.71 202.33 153.43 206.94 148.12C210.42 144.13 212 142.31 212 137.6C212 132.89 210.42 131.07 206.94 127.07C202.33 121.76 196 114.49 196 100.8C196 87.11 202.33 79.84 206.94 74.52C210.42 70.53 212 68.71 212 64C212 57.37 217.37 52 224 52C230.63 52 236 57.37 236 64C236 77.69 229.67 84.96 225.06 90.27C221.58 94.26 220 96.09 220 100.8C220 105.51 221.58 107.33 225.06 111.32C229.68 116.63 236 123.91 236 137.6C236 151.28 229.67 158.56 225.06 163.87C221.58 167.86 220 169.68 220 174.39C220 179.11 221.58 180.93 225.06 184.92C229.68 190.23 236 197.51 236 211.19C236 224.88 229.67 232.16 225.06 237.47C221.58 241.47 220 243.29 220 248C220 254.63 214.63 260 208 260Z" />
			</g>
			<g id="Layer">
				<path id="Layer" class="shp6" d="M184 260C177.37 260 172 254.63 172 248C172 234.31 178.33 227.04 182.94 221.72C186.41 217.73 188 215.91 188 211.2C188 206.49 186.42 204.66 182.94 200.67C178.33 195.36 172 188.08 172 174.4C172 160.71 178.33 153.43 182.94 148.12C186.42 144.13 188 142.31 188 137.6C188 132.89 186.42 131.07 182.94 127.07C178.33 121.76 172 114.49 172 100.8C172 87.11 178.33 79.84 182.94 74.52C186.42 70.53 188 68.71 188 64C188 57.37 193.37 52 200 52C206.63 52 212 57.37 212 64C212 77.69 205.67 84.96 201.06 90.27C197.58 94.26 196 96.09 196 100.8C196 105.51 197.58 107.33 201.06 111.32C205.68 116.63 212 123.91 212 137.6C212 151.28 205.67 158.56 201.06 163.87C197.58 167.86 196 169.68 196 174.39C196 179.11 197.58 180.93 201.06 184.92C205.68 190.23 212 197.51 212 211.19C212 224.88 205.67 232.16 201.06 237.47C197.58 241.47 196 243.29 196 248C196 254.63 190.63 260 184 260Z" />
			</g>
			<g id="Layer">
				<path id="Layer" class="shp9" d="M256 260C249.37 260 244 254.63 244 248C244 234.31 250.33 227.04 254.94 221.72C258.42 217.73 260 215.91 260 211.2C260 206.49 258.42 204.66 254.94 200.67C250.33 195.36 244 188.08 244 174.4C244 160.71 250.33 153.43 254.94 148.12C258.42 144.13 260 142.31 260 137.6C260 132.89 258.42 131.07 254.94 127.07C250.33 121.76 244 114.49 244 100.8C244 87.11 250.33 79.84 254.94 74.52C258.42 70.53 260 68.71 260 64C260 57.37 265.37 52 272 52C278.63 52 284 57.37 284 64C284 77.69 277.67 84.96 273.06 90.27C269.58 94.26 268 96.09 268 100.8C268 105.51 269.58 107.33 273.06 111.32C277.67 116.63 284 123.91 284 137.6C284 151.28 277.67 158.56 273.06 163.87C269.58 167.86 268 169.68 268 174.39C268 179.11 269.58 180.93 273.06 184.92C277.67 190.23 284 197.51 284 211.19C284 224.88 277.68 232.16 273.06 237.47C269.58 241.47 268 243.29 268 248C268 254.63 262.63 260 256 260Z" />
			</g>
			<g id="Layer">
				<path id="Layer" class="shp6" d="M232 260C225.37 260 220 254.63 220 248C220 234.31 226.33 227.04 230.94 221.72C234.41 217.73 236 215.91 236 211.2C236 206.49 234.42 204.66 230.94 200.67C226.33 195.36 220 188.08 220 174.4C220 160.71 226.33 153.43 230.94 148.12C234.42 144.13 236 142.31 236 137.6C236 132.89 234.42 131.07 230.94 127.07C226.33 121.76 220 114.49 220 100.8C220 87.11 226.33 79.84 230.94 74.52C234.42 70.53 236 68.71 236 64C236 57.37 241.37 52 248 52C254.63 52 260 57.37 260 64C260 77.69 253.67 84.96 249.06 90.27C245.58 94.26 244 96.09 244 100.8C244 105.51 245.58 107.33 249.06 111.32C253.68 116.63 260 123.91 260 137.6C260 151.28 253.67 158.56 249.06 163.87C245.58 167.86 244 169.68 244 174.39C244 179.11 245.58 180.93 249.06 184.92C253.68 190.23 260 197.51 260 211.19C260 224.88 253.67 232.16 249.06 237.47C245.58 241.47 244 243.29 244 248C244 254.63 238.63 260 232 260Z" />
			</g>
			<g id="Layer">
				<path id="Layer" class="shp9" d="M304 260C297.37 260 292 254.63 292 248C292 234.31 298.32 227.04 302.94 221.72C306.42 217.73 308 215.91 308 211.2C308 206.49 306.42 204.66 302.94 200.67C298.33 195.36 292 188.08 292 174.4C292 160.71 298.33 153.43 302.94 148.12C306.42 144.13 308 142.31 308 137.6C308 132.89 306.42 131.07 302.94 127.07C298.33 121.76 292 114.49 292 100.8C292 87.11 298.33 79.84 302.94 74.52C306.42 70.53 308 68.71 308 64C308 57.37 313.37 52 320 52C326.63 52 332 57.37 332 64C332 77.69 325.67 84.96 321.06 90.27C317.58 94.26 316 96.09 316 100.8C316 105.51 317.58 107.33 321.06 111.32C325.67 116.63 332 123.91 332 137.6C332 151.28 325.67 158.56 321.06 163.87C317.58 167.86 316 169.68 316 174.39C316 179.11 317.58 180.93 321.06 184.92C325.67 190.23 332 197.51 332 211.19C332 224.88 325.68 232.16 321.06 237.47C317.58 241.47 316 243.29 316 248C316 254.63 310.63 260 304 260Z" />
			</g>
			<g id="Layer">
				<path id="Layer" class="shp6" d="M280 260C273.37 260 268 254.63 268 248C268 234.31 274.32 227.04 278.94 221.72C282.42 217.73 284 215.91 284 211.2C284 206.49 282.42 204.66 278.94 200.67C274.33 195.36 268 188.08 268 174.4C268 160.71 274.33 153.43 278.94 148.12C282.42 144.13 284 142.31 284 137.6C284 132.89 282.42 131.07 278.94 127.07C274.33 121.76 268 114.49 268 100.8C268 87.11 274.33 79.84 278.94 74.52C282.42 70.53 284 68.71 284 64C284 57.37 289.37 52 296 52C302.63 52 308 57.37 308 64C308 77.69 301.67 84.96 297.06 90.27C293.58 94.26 292 96.09 292 100.8C292 105.51 293.58 107.33 297.06 111.32C301.67 116.63 308 123.91 308 137.6C308 151.28 301.67 158.56 297.06 163.87C293.58 167.86 292 169.68 292 174.39C292 179.11 293.58 180.93 297.06 184.92C301.67 190.23 308 197.51 308 211.19C308 224.88 301.68 232.16 297.06 237.47C293.58 241.47 292 243.29 292 248C292 254.63 286.63 260 280 260Z" />
			</g>
		</g>
		<g id="Layer">
			<path id="Layer" class="shp8" d="M336 440L176 440C87.63 440 16 368.37 16 280L16 264C16 255.16 23.16 248 32 248L480 248C488.84 248 496 255.16 496 264L496 280C496 368.37 424.37 440 336 440Z" />
		</g>
		<g id="Layer">
			<path id="Layer" class="shp10" d="M176 424C96.6 424 32 359.4 32 280L32 272C32 267.58 35.58 264 40 264C44.42 264 48 267.58 48 272L48 280C48 350.58 105.42 408 176 408C180.42 408 184 411.58 184 416C184 420.42 180.42 424 176 424Z" />
		</g>
		<g id="Layer">
			<path id="Layer" class="shp7" d="M480 248L320 248C328.84 248 336 255.16 336 264L336 280C336 368.37 264.37 440 176 440L336 440C424.37 440 496 368.37 496 280L496 264C496 255.16 488.84 248 480 248Z" />
		</g>
		<g id="Layer">
			<path id="Layer" class="shp7" d="M320 472L192 472C183.16 472 176 464.84 176 456L176 440L336 440L336 456C336 464.84 328.84 472 320 472Z" />
		</g>
	</g>
</svg>